<?xml version="1.0" standalone="no"?>
<!DOCTYPE svg PUBLIC "-//W3C//DTD SVG 20010904//EN"
 "http://www.w3.org/TR/2001/REC-SVG-20010904/DTD/svg10.dtd">
<svg version="1.0" xmlns="http://www.w3.org/2000/svg"
 width="512.000000pt" height="512.000000pt" viewBox="0 0 512.000000 512.000000"
 preserveAspectRatio="xMidYMid meet">

<g transform="translate(0.000000,512.000000) scale(0.100000,-0.100000)"
fill="#000000" stroke="none">
<path d="M2856 5018 c107 -105 177 -197 213 -281 11 -26 39 -147 61 -270 68
-372 140 -673 176 -736 14 -24 14 -17 8 84 -4 61 -8 256 -9 435 -2 187 -7 347
-14 378 -37 181 -85 292 -155 363 -70 72 -165 109 -313 124 l-72 7 105 -104z"/>
<path d="M2488 5079 l-37 -11 41 -55 c96 -130 179 -296 237 -474 31 -95 54
-189 131 -529 113 -499 235 -768 526 -1160 125 -169 206 -300 272 -440 102
-214 173 -448 209 -680 24 -158 24 -476 -1 -615 -67 -385 -219 -658 -443 -799
-24 -14 -43 -24 -43 -22 0 2 38 61 85 131 100 147 209 365 259 516 172 520 93
1055 -237 1604 -110 184 -285 441 -360 532 -119 142 -166 211 -218 318 -59
120 -85 219 -99 368 -18 193 -46 341 -102 537 -112 395 -294 758 -381 760 -16
0 -16 -2 2 -37 31 -63 71 -182 96 -288 30 -128 48 -257 85 -635 53 -529 97
-746 211 -1033 51 -128 94 -212 170 -333 75 -119 90 -140 194 -269 244 -301
376 -594 441 -980 23 -135 22 -403 0 -549 -54 -348 -233 -659 -503 -876 -87
-70 -86 -70 89 -40 451 78 855 389 1184 912 94 151 233 429 307 618 100 257
122 365 114 574 -6 162 -23 254 -77 419 -85 254 -211 468 -523 885 -202 270
-205 276 -294 592 -141 503 -210 692 -303 834 -80 122 -187 204 -287 221 l-41
6 38 -75 c66 -133 87 -244 135 -719 52 -524 80 -683 156 -904 90 -259 185
-392 402 -555 220 -167 346 -307 433 -484 69 -140 96 -260 97 -424 1 -208 -37
-379 -137 -609 -38 -88 -203 -391 -226 -415 -5 -4 9 47 31 115 47 146 89 309
121 469 30 152 33 502 6 615 -57 232 -83 275 -486 802 -425 556 -531 723 -581
920 -12 46 -46 205 -76 355 -97 490 -170 689 -301 820 -65 66 -123 92 -209 95
-38 1 -87 -3 -107 -8z"/>
<path d="M2095 4986 c-359 -81 -935 -567 -1223 -1031 -76 -124 -218 -392 -283
-535 -296 -656 -314 -1159 -55 -1560 62 -95 208 -245 325 -333 218 -164 293
-292 228 -388 -58 -87 -205 -112 -321 -55 -40 20 -68 42 -89 72 -17 24 -32 43
-33 41 -1 -1 2 -40 7 -87 19 -187 97 -322 224 -388 38 -19 70 -27 132 -30 75
-4 87 -2 145 26 79 37 140 98 178 176 96 200 50 410 -225 1021 -164 363 -193
435 -216 528 -74 308 0 696 217 1130 75 149 119 225 230 392 119 179 160 228
103 125 -81 -150 -218 -438 -272 -575 -144 -365 -199 -603 -201 -860 -1 -236
15 -287 160 -511 409 -630 556 -1048 450 -1279 -44 -96 -114 -154 -294 -243
l-157 -77 105 -3 c350 -10 704 140 975 413 159 160 306 381 385 580 124 309
74 820 -109 1134 -53 91 -125 184 -169 222 -36 30 -39 30 -117 25 -44 -3 -148
-9 -232 -12 -141 -6 -155 -5 -195 15 -78 37 -97 110 -58 213 l20 52 -33 30
c-44 41 -71 82 -64 100 3 8 22 23 42 34 l37 18 -36 28 c-67 51 -67 69 0 153
19 23 34 43 34 46 0 2 -22 18 -49 35 -57 35 -85 72 -77 100 4 11 52 82 107
158 149 205 205 326 268 582 28 112 64 231 81 267 34 71 86 123 104 105 15
-15 11 -217 -10 -415 -8 -88 -18 -268 -21 -400 -8 -372 26 -586 128 -792 61
-123 148 -222 266 -303 345 -236 557 -611 530 -934 -14 -162 -84 -343 -194
-500 -48 -68 -52 -76 -26 -58 109 77 224 232 264 353 21 65 24 92 24 229 0
131 -4 168 -23 238 -63 224 -155 405 -368 720 -98 145 -133 215 -169 336 -53
185 -80 392 -115 876 -32 448 -57 607 -108 710 -15 29 -38 61 -52 71 -35 25
-104 31 -175 15z"/>
<path d="M3564 4860 c146 -261 255 -516 365 -855 104 -317 115 -337 298 -527
84 -87 177 -191 207 -231 106 -142 195 -314 288 -562 l49 -130 -6 100 c-27
453 -155 999 -305 1296 -39 76 -162 258 -242 357 -139 172 -355 377 -569 537
-57 43 -110 83 -118 89 -8 6 7 -27 33 -74z"/>
</g>
</svg>
